<svg width="90" height="90" viewBox="0 0 90 90" fill="none" xmlns="http://www.w3.org/2000/svg">
<path d="M86.7741 16.0205C86.7741 23.6849 68.0709 29.8981 44.9994 29.8981C21.9278 29.8981 3.22461 23.6849 3.22461 16.0205" stroke="black" stroke-width="2"/>
<path d="M3.22461 16.0201C3.22461 8.35577 21.9278 2.14258 44.9994 2.14258C68.0709 2.14258 86.7741 8.35577 86.7741 16.0201" stroke="black" stroke-width="2"/>
<path d="M86.7741 73.9795C86.7741 81.6438 68.0709 87.857 44.9994 87.857C21.9278 87.857 3.22461 81.6438 3.22461 73.9795" stroke="black" stroke-width="2"/>
<path d="M3.22461 73.9791C3.22461 66.3148 21.9278 60.1016 44.9994 60.1016C68.0709 60.1016 86.7741 66.3148 86.7741 73.9791" stroke="black" stroke-width="2" stroke-dasharray="8 4"/>
<path d="M3.22461 73.9797V16.0205" stroke="black" stroke-width="2"/>
<path d="M86.7734 73.9797V16.0205" stroke="black" stroke-width="2"/>
</svg>
