<svg width="90" height="82" viewBox="0 0 90 82" fill="none" xmlns="http://www.w3.org/2000/svg">
<g clip-path="url(#clip0_250_1141)">
<path d="M89.6715 70.7275C89.6715 72.6541 87.6074 74.5467 83.6867 76.2151C79.7659 77.8836 74.1266 79.2691 67.3357 80.2323C60.5447 81.1956 52.8414 81.7027 44.9998 81.7027C37.1583 81.7027 29.4549 81.1956 22.664 80.2323C15.873 79.2691 10.2338 77.8836 6.31299 76.2151C2.39223 74.5467 0.328122 72.6541 0.328125 70.7275" stroke="black" stroke-width="2"/>
<path d="M0.328125 70.7281C0.328131 68.8016 2.39225 66.909 6.31301 65.2405C10.2338 63.5721 15.873 62.1866 22.664 61.2233C29.4549 60.2601 37.1583 59.7529 44.9998 59.7529C52.8414 59.7529 60.5447 60.2601 67.3357 61.2233C74.1266 62.1866 79.7659 63.5721 83.6867 65.2405C87.6074 66.909 89.6715 68.8016 89.6715 70.7281" stroke="#878787" stroke-width="2" stroke-dasharray="4.54 4.54"/>
<path d="M44.9998 0.172852C0.328125 70.7276 0.328125 70.7276 0.328125 70.7276" stroke="black" stroke-width="2"/>
<path d="M89.6717 70.7276C45 0.172852 45 0.172852 45 0.172852" stroke="black" stroke-width="2"/>
<path d="M45 70.7275C89.6717 70.7275 89.6717 70.7275 89.6717 70.7275" stroke="black" stroke-width="2" stroke-dasharray="4.54 4.54"/>
<path d="M45 0.172852C45 70.7276 45 70.7276 45 70.7276" stroke="black" stroke-width="2" stroke-dasharray="4.54 4.54"/>
<path d="M45.0153 71.6929C45.4898 71.6929 45.8744 71.3419 45.8744 70.9089C45.8744 70.476 45.4898 70.125 45.0153 70.125C44.5409 70.125 44.1562 70.476 44.1562 70.9089C44.1562 71.3419 44.5409 71.6929 45.0153 71.6929Z" fill="#43ADFF" stroke="black" stroke-width="0.377952"/>
</g>
<defs>
<clipPath id="clip0_250_1141">
<rect width="90" height="82" fill="white"/>
</clipPath>
</defs>
</svg>
