<svg width="90" height="82" viewBox="0 0 90 82" fill="none" xmlns="http://www.w3.org/2000/svg">
<path d="M85.4313 4.6073C85.3632 4.45739 85.2479 4.32919 85.1 4.23885C84.952 4.14851 84.7781 4.10006 84.6 4.09961H27C26.7614 4.10018 26.5327 4.1865 26.3636 4.3398L4.76357 24.0198C4.59556 24.1741 4.5009 24.3825 4.5 24.5999V77.0796C4.5 77.2971 4.59482 77.5057 4.7636 77.6594C4.93239 77.8132 5.16131 77.8996 5.4 77.8996H63L63.0094 77.8979C63.2447 77.8964 63.4698 77.8108 63.6364 77.6594L85.2364 57.9794C85.404 57.8249 85.4986 57.6168 85.5 57.3996V4.91961C85.4997 4.81242 85.4764 4.70632 85.4313 4.6073ZM26.1626 6.84218C26.2346 7.02287 26.3744 7.17459 26.5572 7.2706C26.74 7.3666 26.9541 7.40072 27.1618 7.36693C27.3695 7.33315 27.5575 7.23364 27.6925 7.08594C27.8276 6.93824 27.901 6.75184 27.9 6.55961V5.73961H82.4272L62.6272 23.7796H7.57276L26.1626 6.84218ZM7.47004 76.2596C7.53589 76.1106 7.5522 75.9472 7.51693 75.7898C7.48167 75.6324 7.39639 75.4879 7.27171 75.3743C7.14703 75.2607 6.98844 75.183 6.81567 75.1508C6.6429 75.1187 6.46358 75.1335 6.3 75.1935V25.4196H26.1V26.2396C26.1 26.4571 26.1948 26.6657 26.3636 26.8194C26.5324 26.9732 26.7613 27.0596 27 27.0596C27.2387 27.0596 27.4676 26.9732 27.6364 26.8194C27.8052 26.6657 27.9 26.4571 27.9 26.2396V25.4196H62.1V56.5796H61.2C60.9613 56.5796 60.7324 56.666 60.5636 56.8198C60.3948 56.9736 60.3 57.1821 60.3 57.3996C60.3 57.6171 60.3948 57.8257 60.5636 57.9794C60.7324 58.1332 60.9613 58.2196 61.2 58.2196H62.1V76.2596H7.47004ZM63.9 24.9392L83.6999 6.89929L83.7 56.5796H82.8C82.589 56.5787 82.3844 56.6456 82.2223 56.7687C82.0602 56.8917 81.951 57.0629 81.9139 57.2522C81.8769 57.4414 81.9143 57.6365 82.0196 57.8031C82.125 57.9696 82.2915 58.0969 82.4898 58.1626L63.9 75.0999V24.9392Z" fill="black"/>
<path d="M26.9996 50.0195C26.7609 50.0195 26.532 50.1059 26.3632 50.2597C26.1944 50.4135 26.0996 50.6221 26.0996 50.8395V52.4795C26.0996 52.697 26.1944 52.9056 26.3632 53.0594C26.532 53.2131 26.7609 53.2995 26.9996 53.2995C27.2383 53.2995 27.4672 53.2131 27.636 53.0594C27.8048 52.9056 27.8996 52.697 27.8996 52.4795V50.8395C27.8996 50.6221 27.8048 50.4135 27.636 50.2597C27.4672 50.1059 27.2383 50.0195 26.9996 50.0195Z" fill="black"/>
<path d="M26.9996 43.46C26.7609 43.46 26.532 43.5464 26.3632 43.7001C26.1944 43.8539 26.0996 44.0625 26.0996 44.28V45.92C26.0996 46.1374 26.1944 46.346 26.3632 46.4998C26.532 46.6536 26.7609 46.74 26.9996 46.74C27.2383 46.74 27.4672 46.6536 27.636 46.4998C27.8048 46.346 27.8996 46.1374 27.8996 45.92V44.28C27.8996 44.0625 27.8048 43.8539 27.636 43.7001C27.4672 43.5464 27.2383 43.46 26.9996 43.46Z" fill="black"/>
<path d="M26.9996 13.9402C27.2383 13.9402 27.4672 13.8538 27.636 13.7C27.8048 13.5462 27.8996 13.3376 27.8996 13.1202V11.4802C27.8996 11.2627 27.8048 11.0541 27.636 10.9003C27.4672 10.7465 27.2383 10.6602 26.9996 10.6602C26.7609 10.6602 26.532 10.7465 26.3632 10.9003C26.1944 11.0541 26.0996 11.2627 26.0996 11.4802V13.1202C26.0996 13.3376 26.1944 13.5462 26.3632 13.7C26.532 13.8538 26.7609 13.9402 26.9996 13.9402Z" fill="black"/>
<path d="M26.9996 36.9004C26.7609 36.9004 26.532 36.9868 26.3632 37.1406C26.1944 37.2943 26.0996 37.5029 26.0996 37.7204V39.3604C26.0996 39.5779 26.1944 39.7864 26.3632 39.9402C26.532 40.094 26.7609 40.1804 26.9996 40.1804C27.2383 40.1804 27.4672 40.094 27.636 39.9402C27.8048 39.7864 27.8996 39.5779 27.8996 39.3604V37.7204C27.8996 37.5029 27.8048 37.2943 27.636 37.1406C27.4672 36.9868 27.2383 36.9004 26.9996 36.9004Z" fill="black"/>
<path d="M27.8996 19.6797V18.0397C27.8996 17.8222 27.8048 17.6137 27.636 17.4599C27.4672 17.3061 27.2383 17.2197 26.9996 17.2197C26.7609 17.2197 26.532 17.3061 26.3632 17.4599C26.1944 17.6137 26.0996 17.8222 26.0996 18.0397V19.6797C26.0996 19.8972 26.1944 20.1058 26.3632 20.2596C26.532 20.4133 26.7609 20.4997 26.9996 20.4997C27.2383 20.4997 27.4672 20.4133 27.636 20.2596C27.8048 20.1058 27.8996 19.8972 27.8996 19.6797Z" fill="black"/>
<path d="M26.9996 30.3398C26.7609 30.3398 26.532 30.4262 26.3632 30.58C26.1944 30.7338 26.0996 30.9424 26.0996 31.1598V32.7998C26.0996 33.0173 26.1944 33.2259 26.3632 33.3797C26.532 33.5335 26.7609 33.6198 26.9996 33.6198C27.2383 33.6198 27.4672 33.5335 27.636 33.3797C27.8048 33.2259 27.8996 33.0173 27.8996 32.7998V31.1598C27.8996 30.9424 27.8048 30.7338 27.636 30.58C27.4672 30.4262 27.2383 30.3398 26.9996 30.3398Z" fill="black"/>
<path d="M48.6004 56.5801H46.8004C46.5617 56.5801 46.3328 56.6665 46.164 56.8202C45.9952 56.974 45.9004 57.1826 45.9004 57.4001C45.9004 57.6176 45.9952 57.8261 46.164 57.9799C46.3328 58.1337 46.5617 58.2201 46.8004 58.2201H48.6004C48.8391 58.2201 49.068 58.1337 49.2368 57.9799C49.4056 57.8261 49.5004 57.6176 49.5004 57.4001C49.5004 57.1826 49.4056 56.974 49.2368 56.8202C49.068 56.6665 48.8391 56.5801 48.6004 56.5801Z" fill="black"/>
<path d="M55.7996 56.5801H53.9996C53.7609 56.5801 53.532 56.6665 53.3632 56.8202C53.1944 56.974 53.0996 57.1826 53.0996 57.4001C53.0996 57.6176 53.1944 57.8261 53.3632 57.9799C53.532 58.1337 53.7609 58.2201 53.9996 58.2201H55.7996C56.0383 58.2201 56.2672 58.1337 56.436 57.9799C56.6048 57.8261 56.6996 57.6176 56.6996 57.4001C56.6996 57.1826 56.6048 56.974 56.436 56.8202C56.2672 56.6665 56.0383 56.5801 55.7996 56.5801Z" fill="black"/>
<path d="M70.2 56.5801H68.4C68.1613 56.5801 67.9324 56.6665 67.7636 56.8202C67.5948 56.974 67.5 57.1826 67.5 57.4001C67.5 57.6176 67.5948 57.8261 67.7636 57.9799C67.9324 58.1337 68.1613 58.2201 68.4 58.2201H70.2C70.4387 58.2201 70.6676 58.1337 70.8364 57.9799C71.0052 57.8261 71.1 57.6176 71.1 57.4001C71.1 57.1826 71.0052 56.974 70.8364 56.8202C70.6676 56.6665 70.4387 56.5801 70.2 56.5801Z" fill="black"/>
<path d="M77.3992 56.5801H75.5992C75.3605 56.5801 75.1316 56.6665 74.9628 56.8202C74.794 56.974 74.6992 57.1826 74.6992 57.4001C74.6992 57.6176 74.794 57.8261 74.9628 57.9799C75.1316 58.1337 75.3605 58.2201 75.5992 58.2201H77.3992C77.6379 58.2201 77.8668 58.1337 78.0356 57.9799C78.2044 57.8261 78.2992 57.6176 78.2992 57.4001C78.2992 57.1826 78.2044 56.974 78.0356 56.8202C77.8668 56.6665 77.6379 56.5801 77.3992 56.5801Z" fill="black"/>
<path d="M41.3992 56.5801H39.5992C39.3605 56.5801 39.1316 56.6665 38.9628 56.8202C38.794 56.974 38.6992 57.1826 38.6992 57.4001C38.6992 57.6176 38.794 57.8261 38.9628 57.9799C39.1316 58.1337 39.3605 58.2201 39.5992 58.2201H41.3992C41.6379 58.2201 41.8668 58.1337 42.0356 57.9799C42.2044 57.8261 42.2992 57.6176 42.2992 57.4001C42.2992 57.1826 42.2044 56.974 42.0356 56.8202C41.8668 56.6665 41.6379 56.5801 41.3992 56.5801Z" fill="black"/>
<path d="M34.2 56.5801H32.4C32.1613 56.5801 31.9324 56.6665 31.7636 56.8202C31.5948 56.974 31.5 57.1826 31.5 57.4001C31.5 57.6176 31.5948 57.8261 31.7636 57.9799C31.9324 58.1337 32.1613 58.2201 32.4 58.2201H34.2C34.4387 58.2201 34.6676 58.1337 34.8364 57.9799C35.0052 57.8261 35.1 57.6176 35.1 57.4001C35.1 57.1826 35.0052 56.974 34.8364 56.8202C34.6676 56.6665 34.4387 56.5801 34.2 56.5801Z" fill="black"/>
<path d="M27.8295 57.0866C27.773 56.9625 27.6839 56.8529 27.57 56.7676C27.4561 56.6822 27.3209 56.6237 27.1763 56.5972C27.0318 56.5707 26.8823 56.5769 26.741 56.6154C26.5997 56.6539 26.471 56.7235 26.3661 56.818L26.3625 56.8202L25.0898 57.9798C25.0062 58.056 24.9399 58.1464 24.8947 58.2459C24.8494 58.3453 24.8262 58.452 24.8262 58.5597C24.8262 58.6673 24.8495 58.774 24.8947 58.8735C24.9399 58.9729 25.0062 59.0633 25.0898 59.1395C25.1734 59.2156 25.2726 59.276 25.3818 59.3172C25.491 59.3584 25.608 59.3796 25.7262 59.3796C25.8444 59.3796 25.9614 59.3584 26.0706 59.3172C26.1798 59.276 26.279 59.2156 26.3626 59.1395L27.6354 57.9798C27.7606 57.8649 27.8459 57.7188 27.8804 57.5599C27.9149 57.401 27.8972 57.2364 27.8295 57.0866Z" fill="black"/>
<path d="M21.2719 61.4589L19.9991 62.6186C19.8315 62.7727 19.7378 62.9809 19.7383 63.1977C19.7388 63.4146 19.8336 63.6224 20.0019 63.7757C20.1702 63.9291 20.3983 64.0154 20.6363 64.0159C20.8744 64.0164 21.1029 63.9309 21.2719 63.7782L22.5447 62.6186C22.7135 62.4649 22.8083 62.2563 22.8083 62.0388C22.8083 61.8213 22.7135 61.6127 22.5447 61.4589C22.376 61.3052 22.147 61.2188 21.9083 61.2188C21.6696 61.2187 21.4407 61.3051 21.2719 61.4589Z" fill="black"/>
<path d="M16.1809 66.0976L14.9081 67.2573C14.8246 67.3334 14.7583 67.4238 14.713 67.5233C14.6678 67.6228 14.6445 67.7294 14.6445 67.8371C14.6445 67.9448 14.6678 68.0514 14.713 68.1509C14.7583 68.2504 14.8246 68.3408 14.9081 68.4169C14.9917 68.4931 15.0909 68.5535 15.2001 68.5947C15.3093 68.6359 15.4264 68.6571 15.5446 68.6571C15.6627 68.6571 15.7798 68.6359 15.889 68.5947C15.9982 68.5535 16.0974 68.4931 16.1809 68.4169L17.4538 67.2573C17.6225 67.1035 17.7174 66.8949 17.7174 66.6774C17.7174 66.46 17.6225 66.2514 17.4538 66.0976C17.285 65.9438 17.0561 65.8574 16.8174 65.8574C16.5787 65.8574 16.3497 65.9438 16.1809 66.0976Z" fill="black"/>
<path d="M11.0892 70.7356L9.81633 71.8953C9.64755 72.0491 9.55273 72.2577 9.55273 72.4751C9.55274 72.6926 9.64757 72.9012 9.81635 73.055C9.98514 73.2087 10.2141 73.2951 10.4528 73.2951C10.6915 73.2951 10.9204 73.2087 11.0892 73.0549L12.362 71.8953C12.4458 71.8192 12.5124 71.7288 12.5579 71.6292C12.6034 71.5296 12.6269 71.4229 12.627 71.315C12.6271 71.2072 12.6039 71.1004 12.5587 71.0007C12.5134 70.9011 12.4471 70.8106 12.3634 70.7343C12.2797 70.658 12.1803 70.5976 12.0709 70.5564C11.9615 70.5152 11.8443 70.494 11.726 70.4941C11.6076 70.4943 11.4904 70.5157 11.3812 70.5571C11.2719 70.5985 11.1727 70.6592 11.0892 70.7356Z" fill="black"/>
</svg>
