<svg width="90" height="56" viewBox="0 0 90 56" fill="none" xmlns="http://www.w3.org/2000/svg">
<path d="M31.1845 41.7051C31.0717 41.673 30.953 41.6616 30.8353 41.6713C30.7176 41.6811 30.6032 41.7119 30.4985 41.762C30.3939 41.812 30.3011 41.8804 30.2254 41.9631C30.1498 42.0458 30.0927 42.1413 30.0576 42.2441L29.5223 43.8099C29.4866 43.9129 29.4736 44.0212 29.4839 44.1288C29.4943 44.2364 29.5279 44.341 29.5827 44.4367C29.6376 44.5324 29.7126 44.6173 29.8036 44.6865C29.8946 44.7557 29.9997 44.8079 30.1128 44.84C30.226 44.8721 30.345 44.8836 30.463 44.8737C30.581 44.8638 30.6957 44.8327 30.8005 44.7823C30.9053 44.7319 30.9982 44.6632 31.0737 44.58C31.1493 44.4968 31.2061 44.4009 31.2409 44.2976L31.7761 42.7318C31.8471 42.5242 31.8247 42.2994 31.7137 42.1068C31.6028 41.9142 31.4124 41.7697 31.1845 41.7051Z" fill="black"/>
<path d="M37.6089 22.915C37.381 22.8504 37.1342 22.8708 36.9229 22.9719C36.7116 23.073 36.5529 23.2464 36.482 23.4541L35.9467 25.0199C35.9107 25.1229 35.8974 25.2314 35.9076 25.3391C35.9178 25.4468 35.9513 25.5516 36.0061 25.6475C36.061 25.7434 36.1361 25.8285 36.2271 25.8978C36.3182 25.9671 36.4234 26.0194 36.5367 26.0515C36.65 26.0837 36.7691 26.0951 36.8873 26.0851C37.0054 26.0752 37.1203 26.044 37.2251 25.9934C37.33 25.9429 37.4229 25.8739 37.4984 25.7905C37.574 25.7072 37.6307 25.611 37.6652 25.5076L38.2005 23.9418C38.2356 23.839 38.2482 23.7309 38.2375 23.6236C38.2268 23.5164 38.193 23.4121 38.1381 23.3168C38.0832 23.2214 38.0081 23.1369 37.9173 23.0679C37.8265 22.999 37.7217 22.9471 37.6089 22.915Z" fill="black"/>
<path d="M39.749 16.6523C39.6361 16.6203 39.5175 16.6088 39.3998 16.6186C39.2821 16.6284 39.1676 16.6592 39.063 16.7092C38.9584 16.7593 38.8656 16.8276 38.7899 16.9104C38.7142 16.9931 38.6572 17.0886 38.6221 17.1914L38.0868 18.7572C38.0511 18.8601 38.038 18.9685 38.0484 19.0761C38.0587 19.1836 38.0923 19.2883 38.1472 19.384C38.202 19.4797 38.2771 19.5646 38.3681 19.6338C38.459 19.703 38.5641 19.7552 38.6773 19.7873C38.7904 19.8194 38.9094 19.8308 39.0274 19.8209C39.1454 19.811 39.2601 19.78 39.365 19.7296C39.4698 19.6792 39.5626 19.6104 39.6382 19.5273C39.7138 19.4441 39.7706 19.3481 39.8053 19.2449L40.3406 17.6791C40.4116 17.4714 40.3891 17.2466 40.2782 17.0541C40.1672 16.8615 39.9769 16.717 39.749 16.6523Z" fill="black"/>
<path d="M33.3258 35.4414C33.213 35.4094 33.0943 35.3979 32.9766 35.4077C32.8589 35.4174 32.7445 35.4482 32.6398 35.4983C32.5352 35.5483 32.4424 35.6167 32.3667 35.6994C32.2911 35.7821 32.234 35.8776 32.1989 35.9804L31.6636 37.5463C31.6276 37.6493 31.6142 37.7578 31.6244 37.8656C31.6346 37.9733 31.668 38.0782 31.7228 38.1741C31.7777 38.27 31.8528 38.3551 31.9438 38.4245C32.0349 38.4939 32.1401 38.5461 32.2535 38.5783C32.3668 38.6104 32.486 38.6219 32.6042 38.6119C32.7224 38.6019 32.8372 38.5707 32.9421 38.5201C33.0471 38.4695 33.1399 38.4005 33.2155 38.3171C33.291 38.2336 33.3476 38.1374 33.3822 38.0339L33.9174 36.4682C33.9526 36.3653 33.9652 36.2572 33.9545 36.15C33.9437 36.0428 33.91 35.9385 33.855 35.8431C33.8001 35.7478 33.7251 35.6632 33.6343 35.5943C33.5435 35.5254 33.4387 35.4734 33.3258 35.4414Z" fill="black"/>
<path d="M35.4671 29.1787C35.3543 29.1467 35.2356 29.1352 35.1179 29.145C35.0002 29.1547 34.8858 29.1855 34.7811 29.2356C34.6765 29.2856 34.5837 29.354 34.508 29.4367C34.4324 29.5195 34.3753 29.615 34.3402 29.7178L33.8049 31.2836C33.7354 31.4908 33.7587 31.7147 33.8699 31.9064C33.981 32.098 34.1709 32.2417 34.398 32.3062C34.6251 32.3706 34.871 32.3506 35.0819 32.2503C35.2928 32.1501 35.4515 31.9779 35.5235 31.7713L36.0587 30.2055C36.1297 29.9978 36.1073 29.773 35.9963 29.5804C35.8854 29.3879 35.695 29.2434 35.4671 29.1787Z" fill="black"/>
<path d="M27.9741 51.0999C28.087 51.132 28.2056 51.1434 28.3233 51.1337C28.4411 51.1239 28.5555 51.0931 28.6601 51.0431C28.7648 50.993 28.8576 50.9247 28.9332 50.8419C29.0089 50.7592 29.0659 50.6637 29.1011 50.5609L29.6363 48.9951C29.7061 48.7878 29.683 48.5637 29.5719 48.3719C29.4608 48.1801 29.2708 48.0362 29.0436 47.9717C28.8163 47.9072 28.5703 47.9273 28.3593 48.0277C28.1483 48.1281 27.9895 48.3006 27.9178 48.5074L27.3825 50.0732C27.3115 50.2808 27.334 50.5056 27.4449 50.6982C27.5559 50.8908 27.7462 51.0353 27.9741 51.0999Z" fill="black"/>
<path d="M53.9753 30.1945L54.5085 31.7609C54.543 31.8642 54.5997 31.9603 54.6751 32.0436C54.7505 32.127 54.8433 32.1959 54.9481 32.2465C55.0529 32.297 55.1676 32.3282 55.2856 32.3383C55.4037 32.3484 55.5227 32.3371 55.636 32.3051C55.7492 32.2731 55.8544 32.221 55.9455 32.1518C56.0366 32.0827 56.1118 31.9978 56.1668 31.9021C56.2218 31.8064 56.2554 31.7017 56.2659 31.5941C56.2763 31.4865 56.2634 31.3781 56.2277 31.2751L55.6944 29.7087C55.6599 29.6054 55.6032 29.5093 55.5278 29.426C55.4523 29.3427 55.3595 29.2738 55.2548 29.2233C55.15 29.1727 55.0353 29.1415 54.9173 29.1315C54.7993 29.1214 54.6802 29.1327 54.567 29.1647C54.4538 29.1967 54.3486 29.2488 54.2575 29.3179C54.1664 29.3871 54.0912 29.4719 54.0363 29.5676C53.9813 29.6633 53.9476 29.7679 53.9371 29.8755C53.9266 29.9831 53.9396 30.0915 53.9753 30.1945Z" fill="black"/>
<path d="M51.8427 23.9285L52.3759 25.495C52.4106 25.5981 52.4673 25.694 52.5428 25.7772C52.6183 25.8603 52.7111 25.929 52.8158 25.9795C52.9205 26.0299 53.0351 26.061 53.153 26.071C53.2709 26.081 53.3898 26.0696 53.5029 26.0377C53.616 26.0057 53.7211 25.9537 53.8121 25.8847C53.9031 25.8157 53.9783 25.7309 54.0333 25.6354C54.0883 25.5398 54.1221 25.4353 54.1327 25.3279C54.1433 25.2204 54.1305 25.1121 54.0951 25.0091L53.5619 23.4428C53.5273 23.3394 53.4707 23.2432 53.3953 23.1598C53.3199 23.0764 53.2271 23.0074 53.1223 22.9568C53.0175 22.9062 52.9028 22.875 52.7847 22.8649C52.6666 22.8548 52.5475 22.8661 52.4342 22.8981C52.3209 22.9301 52.2157 22.9822 52.1246 23.0514C52.0335 23.1206 51.9583 23.2055 51.9033 23.3013C51.8483 23.397 51.8147 23.5017 51.8043 23.6094C51.7938 23.717 51.8069 23.8255 51.8427 23.9285Z" fill="black"/>
<path d="M49.7098 17.6629L50.243 19.2293C50.2775 19.3327 50.3342 19.4288 50.4096 19.5121C50.485 19.5955 50.5778 19.6645 50.6826 19.7151C50.7874 19.7657 50.9021 19.7969 51.0202 19.8069C51.1382 19.817 51.2573 19.8057 51.3706 19.7737C51.4839 19.7417 51.5891 19.6896 51.6802 19.6205C51.7713 19.5513 51.8465 19.4664 51.9014 19.3707C51.9564 19.2749 51.9901 19.1702 52.0005 19.0626C52.0109 18.955 51.9979 18.8465 51.9622 18.7435L51.429 17.1771C51.3945 17.0738 51.3379 16.9776 51.2625 16.8942C51.1871 16.8108 51.0943 16.7418 50.9895 16.6912C50.8847 16.6406 50.77 16.6093 50.6519 16.5993C50.5338 16.5892 50.4147 16.6005 50.3014 16.6325C50.1881 16.6645 50.0829 16.7166 49.9918 16.7858C49.9007 16.855 49.8254 16.9399 49.7705 17.0356C49.7155 17.1314 49.6818 17.2361 49.6714 17.3438C49.661 17.4514 49.6741 17.5599 49.7098 17.6629Z" fill="black"/>
<path d="M56.1081 36.4602L56.6412 38.0265C56.6758 38.1299 56.7324 38.226 56.8078 38.3094C56.8832 38.3928 56.976 38.4617 57.0808 38.5123C57.1856 38.5629 57.3003 38.5941 57.4184 38.6042C57.5365 38.6143 57.6555 38.603 57.7688 38.571C57.8821 38.539 57.9873 38.4869 58.0784 38.4177C58.1695 38.3485 58.2447 38.2636 58.2997 38.1679C58.3546 38.0722 58.3883 37.9675 58.3987 37.8599C58.4092 37.7522 58.3961 37.6438 58.3604 37.5408L57.8273 35.9743C57.7927 35.871 57.736 35.775 57.6606 35.6917C57.5851 35.6083 57.4924 35.5394 57.3876 35.4889C57.2828 35.4383 57.1681 35.4072 57.0501 35.3971C56.9321 35.3871 56.813 35.3984 56.6998 35.4304C56.5866 35.4624 56.4814 35.5144 56.3903 35.5836C56.2992 35.6527 56.2241 35.7375 56.1691 35.8332C56.1141 35.9289 56.0804 36.0336 56.0699 36.1411C56.0595 36.2487 56.0724 36.3571 56.1081 36.4602Z" fill="black"/>
<path d="M58.2411 42.7254L58.7743 44.2918C58.8087 44.3953 58.8653 44.4915 58.9407 44.575C59.0161 44.6585 59.1089 44.7275 59.2137 44.7782C59.3186 44.8289 59.4334 44.8602 59.5515 44.8703C59.6697 44.8804 59.7888 44.8691 59.9022 44.8371C60.0155 44.805 60.1208 44.7529 60.2119 44.6837C60.3031 44.6144 60.3783 44.5294 60.4332 44.4336C60.4882 44.3378 60.5218 44.233 60.5322 44.1253C60.5425 44.0176 60.5294 43.9091 60.4935 43.806L59.9603 42.2396C59.9258 42.1363 59.8692 42.0401 59.7938 41.9567C59.7183 41.8733 59.6255 41.8043 59.5207 41.7537C59.416 41.7031 59.3012 41.6718 59.1831 41.6618C59.065 41.6517 58.9459 41.663 58.8326 41.695C58.7193 41.727 58.6141 41.7791 58.523 41.8483C58.4319 41.9175 58.3567 42.0024 58.3017 42.0981C58.2468 42.1939 58.2131 42.2986 58.2027 42.4063C58.1923 42.5139 58.2053 42.6224 58.2411 42.7254Z" fill="black"/>
<path d="M60.3738 48.9908L60.9071 50.5572C60.9784 50.7642 61.1369 50.937 61.3478 51.0378C61.5587 51.1385 61.8049 51.159 62.0323 51.0947C62.2598 51.0305 62.45 50.8867 62.5613 50.6949C62.6726 50.5031 62.696 50.2789 62.6263 50.0714L62.093 48.505C62.0585 48.4017 62.0019 48.3056 61.9264 48.2222C61.851 48.1388 61.7582 48.0699 61.6535 48.0193C61.5487 47.9687 61.4339 47.9375 61.3159 47.9274C61.1978 47.9173 61.0787 47.9286 60.9654 47.9606C60.8522 47.9926 60.747 48.0447 60.6559 48.1139C60.5648 48.1831 60.4896 48.2679 60.4346 48.3637C60.3796 48.4594 60.3459 48.5641 60.3355 48.6717C60.3251 48.7794 60.3381 48.8878 60.3738 48.9908Z" fill="black"/>
<path d="M23.203 55.2952L21.747 56.0606C21.5409 56.1696 21.3907 56.3486 21.3293 56.5583C21.2678 56.7681 21.3002 56.9915 21.4193 57.1795C21.5383 57.3676 21.7344 57.5049 21.9645 57.5614C22.1945 57.618 22.4398 57.5891 22.6465 57.4811L24.1025 56.7157C24.3085 56.6067 24.4588 56.4277 24.5202 56.2179C24.5816 56.0082 24.5493 55.7848 24.4302 55.5967C24.3111 55.4087 24.1151 55.2714 23.885 55.2148C23.6549 55.1583 23.4097 55.1872 23.203 55.2952Z" fill="black"/>
<path d="M65.8976 56.7159L67.3537 57.4813C67.5604 57.5893 67.8056 57.6182 68.0357 57.5616C68.2658 57.5051 68.4618 57.3677 68.5809 57.1797C68.7 56.9916 68.7323 56.7683 68.6709 56.5585C68.6095 56.3487 68.4592 56.1697 68.2532 56.0607L66.7971 55.2954C66.6948 55.2412 66.5816 55.206 66.4643 55.1918C66.3469 55.1775 66.2277 55.1845 66.1133 55.2123C65.9989 55.2401 65.8916 55.2882 65.7977 55.3538C65.7037 55.4195 65.6249 55.5014 65.5657 55.5948C65.5066 55.6882 65.4682 55.7914 65.4529 55.8983C65.4376 56.0053 65.4455 56.114 65.4764 56.2181C65.5072 56.3223 65.5603 56.4198 65.6326 56.5053C65.7049 56.5907 65.7949 56.6623 65.8976 56.7159Z" fill="black"/>
<path d="M42.2996 53.2998H40.4996C40.2609 53.2998 40.032 53.3862 39.8632 53.54C39.6944 53.6938 39.5996 53.9023 39.5996 54.1198C39.5996 54.3373 39.6944 54.5459 39.8632 54.6996C40.032 54.8534 40.2609 54.9398 40.4996 54.9398H42.2996C42.5383 54.9398 42.7672 54.8534 42.936 54.6996C43.1048 54.5459 43.1996 54.3373 43.1996 54.1198C43.1996 53.9023 43.1048 53.6938 42.936 53.54C42.7672 53.3862 42.5383 53.2998 42.2996 53.2998Z" fill="black"/>
<path d="M49.5008 53.2998H47.7008C47.4621 53.2998 47.2332 53.3862 47.0644 53.54C46.8956 53.6938 46.8008 53.9023 46.8008 54.1198C46.8008 54.3373 46.8956 54.5459 47.0644 54.6996C47.2332 54.8534 47.4621 54.9398 47.7008 54.9398H49.5008C49.7395 54.9398 49.9684 54.8534 50.1372 54.6996C50.306 54.5459 50.4008 54.3373 50.4008 54.1198C50.4008 53.9023 50.306 53.6938 50.1372 53.54C49.9684 53.3862 49.7395 53.2998 49.5008 53.2998Z" fill="black"/>
<path d="M28.7996 53.2998H26.9996C26.7609 53.2998 26.532 53.3862 26.3632 53.54C26.1944 53.6938 26.0996 53.9023 26.0996 54.1198C26.0996 54.3373 26.1944 54.5459 26.3632 54.6996C26.532 54.8534 26.7609 54.9398 26.9996 54.9398H28.7996C29.0383 54.9398 29.2672 54.8534 29.436 54.6996C29.6048 54.5459 29.6996 54.3373 29.6996 54.1198C29.6996 53.9023 29.6048 53.6938 29.436 53.54C29.2672 53.3862 29.0383 53.2998 28.7996 53.2998Z" fill="black"/>
<path d="M61.2008 53.2998C60.9621 53.2998 60.7332 53.3862 60.5644 53.54C60.3956 53.6938 60.3008 53.9023 60.3008 54.1198C60.3008 54.3373 60.3956 54.5459 60.5644 54.6996C60.7332 54.8534 60.9621 54.9398 61.2008 54.9398H63.0008C63.2395 54.9398 63.4684 54.8534 63.6372 54.6996C63.806 54.5459 63.9008 54.3373 63.9008 54.1198C63.9008 53.9023 63.806 53.6938 63.6372 53.54C63.4684 53.3862 63.2395 53.2998 63.0008 53.2998H61.2008Z" fill="black"/>
<path d="M85.3734 65.1814L45.7734 4.50141C45.6938 4.37899 45.5806 4.27756 45.4448 4.20711C45.3091 4.13666 45.1556 4.09961 44.9994 4.09961C44.8432 4.09961 44.6897 4.13666 44.554 4.20711C44.4183 4.27756 44.3051 4.37899 44.2254 4.50141L4.62542 65.1814C4.56305 65.2736 4.52209 65.3765 4.50506 65.4837C4.48803 65.5909 4.49531 65.7001 4.52643 65.8046C4.55704 65.9094 4.6102 66.0075 4.68282 66.0934C4.75543 66.1793 4.84606 66.2511 4.94943 66.3048L26.5494 77.7848C26.6213 77.8266 26.7004 77.8571 26.7834 77.875C26.7924 77.875 26.7924 77.875 26.8014 77.8832C26.8104 77.8832 26.8284 77.875 26.8374 77.8832C26.8908 77.8927 26.945 77.8982 26.9994 77.8996H62.9994C63.0538 77.8982 63.108 77.8927 63.1614 77.8832C63.1704 77.875 63.1884 77.8832 63.1974 77.8832C63.2064 77.875 63.2064 77.875 63.2154 77.875C63.2984 77.8571 63.3775 77.8266 63.4494 77.7848L85.0494 66.3048C85.1528 66.2511 85.2434 66.1793 85.316 66.0934C85.3887 66.0075 85.4418 65.9094 85.4724 65.8046C85.5036 65.7001 85.5108 65.5909 85.4938 65.4837C85.4768 65.3765 85.4358 65.2736 85.3734 65.1814ZM26.3964 75.8086L6.63243 65.3044L42.8574 9.80681L26.3964 75.8086ZM28.1244 76.2596L33.4432 54.9396H35.0994C35.3381 54.9396 35.567 54.8532 35.7358 54.6994C35.9046 54.5457 35.9994 54.3371 35.9994 54.1196C35.9994 53.9021 35.9046 53.6936 35.7358 53.5398C35.567 53.386 35.3381 53.2996 35.0994 53.2996H33.8524L44.9994 8.61781L56.1465 53.2996H54.8994C54.6607 53.2996 54.4318 53.386 54.263 53.5398C54.0942 53.6936 53.9994 53.9021 53.9994 54.1196C53.9994 54.3371 54.0942 54.5457 54.263 54.6994C54.4318 54.8532 54.6607 54.9396 54.8994 54.9396H56.5556L61.8744 76.2596H28.1244ZM63.6024 75.8086L47.1414 9.80681L83.3664 65.3044L63.6024 75.8086Z" fill="black"/>
</svg>
