<svg width="90" height="60" viewBox="0 0 90 60" fill="none" xmlns="http://www.w3.org/2000/svg">
<g clip-path="url(#clip0_250_1152)">
<path d="M44.9292 89.6775C69.5649 89.6775 89.5361 69.6749 89.5361 45.0004C89.5361 20.3259 69.5649 0.323242 44.9292 0.323242C20.2935 0.323242 0.322266 20.3259 0.322266 45.0004C0.322266 69.6749 20.2935 89.6775 44.9292 89.6775Z" stroke="black" stroke-width="1.88976" stroke-linecap="round" stroke-linejoin="round"/>
<path d="M89.3508 44.2754C89.3508 46.3747 87.3015 48.4371 83.4089 50.2551C79.5163 52.0732 73.9175 53.583 67.1752 54.6326C60.433 55.6823 52.7849 56.2349 44.9996 56.2349C37.2144 56.2349 29.5663 55.6823 22.824 54.6326C16.0818 53.583 10.483 52.0732 6.59037 50.2551C2.69774 48.4371 0.648435 46.3747 0.648438 44.2754" stroke="black" stroke-width="1.88976"/>
<path d="M0.648438 44.2749C0.648444 42.1756 2.69775 40.1132 6.59038 38.2952C10.483 36.4771 16.0818 34.9674 22.824 33.9177C29.5663 32.868 37.2144 32.3154 44.9996 32.3154C52.7849 32.3154 60.433 32.868 67.1752 33.9177C73.9175 34.9674 79.5163 36.4771 83.4089 38.2952C87.3015 40.1132 89.3508 42.1756 89.3508 44.2749" stroke="#878787" stroke-width="1.13386" stroke-dasharray="4.54 4.54"/>
<path d="M44.9996 44.9839C45.7037 44.9839 46.2745 44.6692 46.2745 44.281C46.2745 43.8928 45.7037 43.5781 44.9996 43.5781C44.2954 43.5781 43.7246 43.8928 43.7246 44.281C43.7246 44.6692 44.2954 44.9839 44.9996 44.9839Z" fill="black" stroke="black" stroke-width="0.41616"/>
</g>
<defs>
<clipPath id="clip0_250_1152">
<rect width="90" height="90" fill="white"/>
</clipPath>
</defs>
</svg>
