<svg width="28" height="28" viewBox="0 0 28 28" fill="none" xmlns="http://www.w3.org/2000/svg">
<path d="M3.38203 4.66699C3.10355 4.66699 2.83648 4.77762 2.63957 4.97453C2.44266 5.17144 2.33203 5.43851 2.33203 5.71699C2.33203 5.99547 2.44266 6.26254 2.63957 6.45945C2.83648 6.65637 3.10355 6.76699 3.38203 6.76699H23.682C23.9605 6.76699 24.2276 6.65637 24.4245 6.45945C24.6214 6.26254 24.732 5.99547 24.732 5.71699C24.732 5.43851 24.6214 5.17144 24.4245 4.97453C24.2276 4.77762 23.9605 4.66699 23.682 4.66699H3.38203ZM2.33203 12.017C2.33203 11.051 3.11603 10.267 4.08203 10.267H22.982C23.4462 10.267 23.8913 10.4514 24.2195 10.7796C24.5477 11.1077 24.732 11.5529 24.732 12.017C24.732 12.4811 24.5477 12.9262 24.2195 13.2544C23.8913 13.5826 23.4462 13.767 22.982 13.767H4.08203C3.11603 13.767 2.33203 12.983 2.33203 12.017ZM2.33203 19.717C2.33203 18.3646 3.42963 17.267 4.78203 17.267H22.282C22.9318 17.267 23.555 17.5251 24.0144 17.9846C24.4739 18.444 24.732 19.0672 24.732 19.717C24.732 20.3668 24.4739 20.9899 24.0144 21.4494C23.555 21.9089 22.9318 22.167 22.282 22.167H4.78203C4.13225 22.167 3.50908 21.9089 3.04962 21.4494C2.59016 20.9899 2.33203 20.3668 2.33203 19.717Z" fill="#1043C7"/>
</svg>
