<svg width="18" height="18" viewBox="0 0 18 18" fill="none" xmlns="http://www.w3.org/2000/svg">
<g clip-path="url(#clip0_305_2573)">
<path d="M11.425 12.7865C11.159 12.2478 10.8151 11.8558 10.2215 12.0948L9.05039 12.5219C8.11289 12.9491 7.64576 12.5219 7.17539 11.8781L5.06683 7.16694C4.80407 6.62826 4.94031 6.12145 5.53395 5.88238L7.17215 5.23851C7.76579 4.99626 7.67171 4.49263 7.40571 3.95394L6.00757 1.38482C5.74157 0.846133 5.19658 0.715445 4.60294 0.954508C3.41242 1.43582 2.4295 2.19126 1.79369 3.31007C1.01514 4.67751 1.40441 6.58044 1.56012 7.38051C1.71583 8.18057 2.26081 9.58307 2.96475 11.0206C3.66869 12.4614 4.28828 13.5929 4.83975 14.2336C5.39122 14.8743 6.71475 16.6274 8.35294 17.0195C9.69594 17.3383 11.146 17.0705 12.3333 16.5892C12.9269 16.3501 12.9302 15.8433 12.6641 15.3014L11.425 12.7865ZM16.6607 5.22894L15.3826 3.97307L13.4654 5.85688L11.5482 3.97307L10.2701 5.22894L12.1873 7.11276L10.2701 8.99976L11.5482 10.2556L13.4654 8.37182L15.3826 10.2556L16.6607 8.99976L14.7435 7.11594L16.6607 5.22894Z" fill="white"/>
</g>
<defs>
<clipPath id="clip0_305_2573">
<rect width="16.609" height="16.32" fill="white" transform="translate(0.785156 0.839844)"/>
</clipPath>
</defs>
</svg>
