<svg width="19" height="14" viewBox="0 0 19 14" fill="none" xmlns="http://www.w3.org/2000/svg">
<path d="M13.1906 3.03353C13.1906 2.28208 12.8944 1.56141 12.3671 1.03006C11.8399 0.498706 11.1248 0.200195 10.3791 0.200195H3.63173C2.8861 0.200195 2.171 0.498706 1.64376 1.03006C1.11651 1.56141 0.820313 2.28208 0.820312 3.03353V10.9669C0.820312 11.7183 1.11651 12.439 1.64376 12.9703C2.171 13.5017 2.8861 13.8002 3.63173 13.8002H10.3791C11.1248 13.8002 11.8399 13.5017 12.3671 12.9703C12.8944 12.439 13.1906 11.7183 13.1906 10.9669V3.03353ZM14.3151 4.6542V9.35979L17.4234 12.0231C17.5461 12.1283 17.6962 12.1959 17.8558 12.2179C18.0154 12.2399 18.178 12.2153 18.3242 12.1471C18.4704 12.0789 18.5942 11.97 18.6809 11.8331C18.7676 11.6963 18.8136 11.5372 18.8134 11.3749V2.6856C18.8131 2.52418 18.7672 2.36618 18.6811 2.23007C18.595 2.09397 18.4722 1.98539 18.3272 1.91703C18.1821 1.84867 18.0206 1.82336 17.8618 1.84407C17.703 1.86477 17.5532 1.93062 17.4302 2.03393L14.3151 4.6542Z" fill="white"/>
</svg>
