<svg width="18" height="18" viewBox="0 0 18 18" fill="none" xmlns="http://www.w3.org/2000/svg">
<g clip-path="url(#clip0_305_2566)">
<path d="M14.3694 8.54688H13.4467C13.4467 9.36288 13.216 10.1335 12.8008 10.8135L13.4928 11.4935C14.0465 10.5869 14.3233 9.58954 14.3694 8.54688Z" fill="white"/>
<path d="M12.0626 8.54675V4.92008C12.0626 3.15208 10.5862 1.74675 8.78693 1.79208C7.44899 1.79208 6.20331 2.65342 5.78809 3.92275L11.7858 9.81608C11.9703 9.40808 12.0626 8.95475 12.0626 8.54675Z" fill="white"/>
<path d="M12.1553 12.8986L15.3387 16.0266L15.9846 15.3919L2.37442 2.01855L1.72852 2.65322L5.60395 6.46122V8.54655C5.60395 10.3146 7.03417 11.7199 8.83348 11.7199C9.43325 11.7199 9.98688 11.5839 10.4944 11.2666L11.5094 12.2639C10.7251 12.8079 9.80233 13.0799 8.83348 13.0799C6.34213 13.1706 4.31214 11.2212 4.21987 8.81855V8.54655H3.29714C3.34328 11.3572 5.51168 13.7146 8.37211 13.9866V15.3466H6.98803C6.71122 15.3466 6.52667 15.5279 6.52667 15.7999C6.52667 16.0719 6.71122 16.2532 6.98803 16.2532H10.6789C10.9557 16.2532 11.1403 16.0719 11.1403 15.7999C11.1403 15.5279 10.9557 15.3466 10.6789 15.3466H9.29484V13.9866C10.3098 13.8959 11.3248 13.5332 12.1553 12.8986Z" fill="white"/>
</g>
<defs>
<clipPath id="clip0_305_2566">
<rect width="16.609" height="16.32" fill="white" transform="translate(0.529297 0.839844)"/>
</clipPath>
</defs>
</svg>
