<svg width="18" height="18" viewBox="0 0 18 18" fill="none" xmlns="http://www.w3.org/2000/svg">
<path d="M14.5092 3.13477H3.09055C2.74641 3.13477 2.41636 3.2691 2.17302 3.5082C1.92968 3.74731 1.79297 4.07161 1.79297 4.40977V11.0398C1.79297 11.3779 1.92968 11.7022 2.17302 11.9413C2.41636 12.1804 2.74641 12.3148 3.09055 12.3148H14.5092C14.8534 12.3148 15.1834 12.1804 15.4268 11.9413C15.6701 11.7022 15.8068 11.3779 15.8068 11.0398V4.40977C15.8068 4.07161 15.6701 3.74731 15.4268 3.5082C15.1834 3.2691 14.8534 3.13477 14.5092 3.13477ZM14.2497 10.7848H3.35006V4.66477H14.2497V10.7848ZM15.8068 14.0998C15.8068 14.3027 15.7248 14.4972 15.5788 14.6407C15.4328 14.7842 15.2347 14.8648 15.0283 14.8648H2.57152C2.36503 14.8648 2.16701 14.7842 2.021 14.6407C1.87499 14.4972 1.79297 14.3027 1.79297 14.0998C1.79297 13.8969 1.87499 13.7023 2.021 13.5588C2.16701 13.4154 2.36503 13.3348 2.57152 13.3348H15.0283C15.2347 13.3348 15.4328 13.4154 15.5788 13.5588C15.7248 13.7023 15.8068 13.8969 15.8068 14.0998ZM7.2428 8.99977V6.44977C7.24275 6.31319 7.27991 6.17909 7.35043 6.06139C7.42095 5.9437 7.52225 5.8467 7.64381 5.78047C7.76538 5.71424 7.90276 5.6812 8.04171 5.68477C8.18066 5.68834 8.3161 5.7284 8.43397 5.80079L10.5101 7.07579C10.6222 7.14453 10.7146 7.24017 10.7787 7.35371C10.8428 7.46724 10.8764 7.59494 10.8764 7.72477C10.8764 7.8546 10.8428 7.98229 10.7787 8.09583C10.7146 8.20936 10.6222 8.305 10.5101 8.37374L8.43397 9.64874C8.3161 9.72113 8.18066 9.76119 8.04171 9.76476C7.90276 9.76833 7.76538 9.73529 7.64381 9.66906C7.52225 9.60283 7.42095 9.50583 7.35043 9.38814C7.27991 9.27044 7.24275 9.13634 7.2428 8.99977Z" fill="white"/>
</svg>
